<?xml version="1.0" encoding="utf-8"?>
<svg version="1.1" xmlns:xlink="http://www.w3.org/1999/xlink" width="59px" height="24px" xmlns="http://www.w3.org/2000/svg">
  <g transform="matrix(1 0 0 1 -48 -277 )">
    <path d="M 48 277  L 107 277  L 107 301  L 48 301  L 48 277  " fill-rule="nonzero" fill="#cccccc" stroke="none" />
    <path d="M 50 279  L 105 279  L 105 299  L 50 299  L 50 279  " fill-rule="nonzero" fill="#ffffff" stroke="none" />
    <path d="M 80.48 284.20000000000005  C 79.47200000000001 284.20000000000005  78.68 283.408  78.68 282.40000000000003  C 78.68 281.39200000000005  79.47200000000001 280.6  80.48 280.6  C 81.488 280.6  82.28 281.39200000000005  82.28 282.40000000000003  C 82.28 283.408  81.488 284.20000000000005  80.48 284.20000000000005  " fill-rule="nonzero" fill="#cccccc" stroke="none" />
    <path d="M 51 299  L 51 288.55  L 64.5 283.8  L 83.4 294.3627118644068  L 94.2 286.65  L 105 294.3627118644068  L 105 299  L 51 299  " fill-rule="nonzero" fill="#169bd5" stroke="none" />
  </g>
</svg>