<?xml version="1.0" encoding="utf-8"?>
<svg version="1.1" xmlns:xlink="http://www.w3.org/1999/xlink" width="79px" height="84px" xmlns="http://www.w3.org/2000/svg">
  <g transform="matrix(1 0 0 1 -31 -952 )">
    <path d="M 31 952  L 110 952  L 110 1036  L 31 1036  L 31 952  " fill-rule="nonzero" fill="#cccccc" stroke="none" />
    <path d="M 37 958  L 104 958  L 104 1030  L 37 1030  L 37 958  " fill-rule="nonzero" fill="#ffffff" stroke="none" />
    <path d="M 78.005 976.45  C 74.687 976.45  72.08 973.8430000000001  72.08 970.5250000000001  C 72.08 967.2070000000001  74.687 964.6  78.005 964.6  C 81.323 964.6  83.92999999999999 967.2070000000001  83.92999999999999 970.5250000000001  C 83.92999999999999 973.8430000000001  81.323 976.45  78.005 976.45  " fill-rule="nonzero" fill="#cccccc" stroke="none" />
    <path d="M 39 1028  L 39 990.6  L 54.75 973.6  L 76.8 987.2  L 89.4 983.8  L 102 987.2  L 102 1028  L 39 1028  " fill-rule="nonzero" fill="#169bd5" stroke="none" />
  </g>
</svg>