<?xml version="1.0" encoding="utf-8"?>
<svg version="1.1" xmlns:xlink="http://www.w3.org/1999/xlink" width="55px" height="58px" xmlns="http://www.w3.org/2000/svg">
  <g transform="matrix(1 0 0 1 -40 -482 )">
    <path d="M 40 482  L 95 482  L 95 540  L 40 540  L 40 482  " fill-rule="nonzero" fill="#cccccc" stroke="none" />
    <path d="M 44 486  L 91 486  L 91 536  L 44 536  L 44 486  " fill-rule="nonzero" fill="#ffffff" stroke="none" />
    <path d="M 72.725 498.95  C 70.41499999999999 498.95  68.6 497.135  68.6 494.825  C 68.6 492.515  70.41499999999999 490.7  72.725 490.7  C 75.035 490.7  76.85 492.515  76.85 494.825  C 76.85 497.135  75.035 498.95  72.725 498.95  " fill-rule="nonzero" fill="#cccccc" stroke="none" />
    <path d="M 46 535  L 46 509.15  L 57 497.4  L 72.4 506.8  L 81.2 504.45  L 90 506.8  L 90 535  L 46 535  " fill-rule="nonzero" fill="#169bd5" stroke="none" />
  </g>
</svg>