<?xml version="1.0" encoding="utf-8"?>
<svg version="1.1" xmlns:xlink="http://www.w3.org/1999/xlink" width="375px" height="189px" xmlns="http://www.w3.org/2000/svg">
  <g transform="matrix(1 0 0 1 0 -84 )">
    <path d="M 0 84  L 375 84  L 375 273  L 0 273  L 0 84  " fill-rule="nonzero" fill="#cccccc" stroke="none" />
    <path d="M 13 97  L 362 97  L 362 260  L 13 260  L 13 97  " fill-rule="nonzero" fill="#ffffff" stroke="none" />
    <path d="M 209.175 140.7  C 201.237 140.7  195 134.463  195 126.52499999999999  C 195 118.58699999999999  201.237 112.35  209.175 112.35  C 217.113 112.35  223.35 118.58699999999999  223.35 126.52499999999999  C 223.35 134.463  217.113 140.7  209.175 140.7  " fill-rule="nonzero" fill="#cccccc" stroke="none" />
    <path d="M 18 256  L 18 171.3  L 103 132.8  L 222 209.43040000000002  L 290 155.89999999999998  L 358 209.43040000000002  L 358 256  L 18 256  " fill-rule="nonzero" fill="#169bd5" stroke="none" />
  </g>
</svg>