<?xml version="1.0" encoding="utf-8"?>
<svg version="1.1" xmlns:xlink="http://www.w3.org/1999/xlink" width="53px" height="52px" xmlns="http://www.w3.org/2000/svg">
  <g transform="matrix(1 0 0 1 -92 -126 )">
    <path d="M 118.5 126  C 133.34 126  145 137.44  145 152  C 145 166.56  133.34 178  118.5 178  C 103.66 178  92 166.56  92 152  C 92 137.44  103.66 126  118.5 126  Z " fill-rule="nonzero" fill="#ffffff" stroke="none" />
    <path d="M 118.5 126.5  C 133.06 126.5  144.5 137.72  144.5 152  C 144.5 166.28  133.06 177.5  118.5 177.5  C 103.94 177.5  92.5 166.28  92.5 152  C 92.5 137.72  103.94 126.5  118.5 126.5  Z " stroke-width="1" stroke="#797979" fill="none" />
  </g>
</svg>