<?xml version="1.0" encoding="utf-8"?>
<svg version="1.1" xmlns:xlink="http://www.w3.org/1999/xlink" width="53px" height="52px" xmlns="http://www.w3.org/2000/svg">
  <g transform="matrix(1 0 0 1 -237 -126 )">
    <path d="M 263.5 126  C 278.34000000000003 126  290 137.44  290 152  C 290 166.56  278.34000000000003 178  263.5 178  C 248.66 178  237 166.56  237 152  C 237 137.44  248.66 126  263.5 126  Z " fill-rule="nonzero" fill="#ffffff" stroke="none" />
    <path d="M 263.5 126.5  C 278.06 126.5  289.5 137.72  289.5 152  C 289.5 166.28  278.06 177.5  263.5 177.5  C 248.94 177.5  237.5 166.28  237.5 152  C 237.5 137.72  248.94 126.5  263.5 126.5  Z " stroke-width="1" stroke="#797979" fill="none" />
  </g>
</svg>