<?xml version="1.0" encoding="utf-8"?>
<svg version="1.1" xmlns:xlink="http://www.w3.org/1999/xlink" width="99px" height="93px" xmlns="http://www.w3.org/2000/svg">
  <g transform="matrix(1 0 0 1 -19 -199 )">
    <path d="M 19 199  L 118 199  L 118 292  L 19 292  L 19 199  " fill-rule="nonzero" fill="#cccccc" stroke="none" />
    <path d="M 26 206  L 111 206  L 111 285  L 26 285  L 26 206  " fill-rule="nonzero" fill="#ffffff" stroke="none" />
    <path d="M 77.45500000000001 226.89999999999998  C 73.549 226.89999999999998  70.48 223.831  70.48 219.92499999999998  C 70.48 216.01899999999998  73.549 212.95  77.45500000000001 212.95  C 81.361 212.95  84.43 216.01899999999998  84.43 219.92499999999998  C 84.43 223.831  81.361 226.89999999999998  77.45500000000001 226.89999999999998  " fill-rule="nonzero" fill="#cccccc" stroke="none" />
    <path d="M 29 283  L 29 242.3  L 49 223.8  L 77 241.29090909090908  L 93 234.9  L 109 241.29090909090908  L 109 283  L 29 283  " fill-rule="nonzero" fill="#169bd5" stroke="none" />
  </g>
</svg>