<?xml version="1.0" encoding="utf-8"?>
<svg version="1.1" xmlns:xlink="http://www.w3.org/1999/xlink" width="53px" height="52px" xmlns="http://www.w3.org/2000/svg">
  <g transform="matrix(1 0 0 1 -19 -126 )">
    <path d="M 45.5 126  C 60.34 126  72 137.44  72 152  C 72 166.56  60.34 178  45.5 178  C 30.659999999999997 178  19 166.56  19 152  C 19 137.44  30.659999999999997 126  45.5 126  Z " fill-rule="nonzero" fill="#ffffff" stroke="none" />
    <path d="M 45.5 126.5  C 60.06 126.5  71.5 137.72  71.5 152  C 71.5 166.28  60.06 177.5  45.5 177.5  C 30.939999999999998 177.5  19.5 166.28  19.5 152  C 19.5 137.72  30.939999999999998 126.5  45.5 126.5  Z " stroke-width="1" stroke="#797979" fill="none" />
  </g>
</svg>