<?xml version="1.0" encoding="utf-8"?>
<svg version="1.1" xmlns:xlink="http://www.w3.org/1999/xlink" width="99px" height="93px" xmlns="http://www.w3.org/2000/svg">
  <g transform="matrix(1 0 0 1 -25 -228 )">
    <path d="M 25 228  L 124 228  L 124 321  L 25 321  L 25 228  " fill-rule="nonzero" fill="#cccccc" stroke="none" />
    <path d="M 32 235  L 117 235  L 117 314  L 32 314  L 32 235  " fill-rule="nonzero" fill="#ffffff" stroke="none" />
    <path d="M 83.45500000000001 255.89999999999998  C 79.549 255.89999999999998  76.48 252.831  76.48 248.92499999999998  C 76.48 245.01899999999998  79.549 241.95  83.45500000000001 241.95  C 87.361 241.95  90.43 245.01899999999998  90.43 248.92499999999998  C 90.43 252.831  87.361 255.89999999999998  83.45500000000001 255.89999999999998  " fill-rule="nonzero" fill="#cccccc" stroke="none" />
    <path d="M 35 312  L 35 271.3  L 55 252.8  L 83 270.2909090909091  L 99 263.9  L 115 270.2909090909091  L 115 312  L 35 312  " fill-rule="nonzero" fill="#169bd5" stroke="none" />
  </g>
</svg>