<?xml version="1.0" encoding="utf-8"?>
<svg version="1.1" xmlns:xlink="http://www.w3.org/1999/xlink" width="102px" height="122px" xmlns="http://www.w3.org/2000/svg">
  <g transform="matrix(1 0 0 1 -28 -909 )">
    <path d="M 28 909  L 130 909  L 130 1031  L 28 1031  L 28 909  " fill-rule="nonzero" fill="#cccccc" stroke="none" />
    <path d="M 35 916  L 123 916  L 123 1024  L 35 1024  L 35 916  " fill-rule="nonzero" fill="#ffffff" stroke="none" />
    <path d="M 88.69 942.5999999999999  C 84.40599999999999 942.5999999999999  81.03999999999999 939.2339999999999  81.03999999999999 934.9499999999999  C 81.03999999999999 930.6659999999999  84.40599999999999 927.3  88.69 927.3  C 92.97399999999999 927.3  96.33999999999999 930.6659999999999  96.33999999999999 934.9499999999999  C 96.33999999999999 939.2339999999999  92.97399999999999 942.5999999999999  88.69 942.5999999999999  " fill-rule="nonzero" fill="#cccccc" stroke="none" />
    <path d="M 38 1022  L 38 965.35  L 58.75 939.6  L 87.8 960.2  L 104.4 955.05  L 121 960.2  L 121 1022  L 38 1022  " fill-rule="nonzero" fill="#169bd5" stroke="none" />
  </g>
</svg>