<?xml version="1.0" encoding="utf-8"?>
<svg version="1.1" xmlns:xlink="http://www.w3.org/1999/xlink" width="313px" height="226px" xmlns="http://www.w3.org/2000/svg">
  <g transform="matrix(1 0 0 1 -504 -107 )">
    <path d="M 504 107  L 817 107  L 817 333  L 504 333  L 504 107  " fill-rule="nonzero" fill="#cccccc" stroke="none" />
    <path d="M 520 123  L 801 123  L 801 317  L 520 317  L 520 123  " fill-rule="nonzero" fill="#ffffff" stroke="none" />
    <path d="M 683.71 174.8  C 674.218 174.8  666.76 167.342  666.76 157.85000000000002  C 666.76 148.358  674.218 140.9  683.71 140.9  C 693.202 140.9  700.66 148.358  700.66 157.85000000000002  C 700.66 167.342  693.202 174.8  683.71 174.8  " fill-rule="nonzero" fill="#cccccc" stroke="none" />
    <path d="M 526 312  L 526 211.35  L 593.5 165.6  L 688 232.71948881789137  L 742 193.05  L 796 232.71948881789137  L 796 312  L 526 312  " fill-rule="nonzero" fill="#169bd5" stroke="none" />
  </g>
</svg>