<?xml version="1.0" encoding="utf-8"?>
<svg version="1.1" xmlns:xlink="http://www.w3.org/1999/xlink" width="29px" height="27px" xmlns="http://www.w3.org/2000/svg">
  <g transform="matrix(1 0 0 1 -27 -883 )">
    <path d="M 41.5 883  C 49.620000000000005 883  56 888.94  56 896.5  C 56 904.06  49.620000000000005 910  41.5 910  C 33.379999999999995 910  27 904.06  27 896.5  C 27 888.94  33.379999999999995 883  41.5 883  Z " fill-rule="nonzero" fill="#ffffff" stroke="none" />
    <path d="M 41.5 883.5  C 49.34 883.5  55.5 889.22  55.5 896.5  C 55.5 903.78  49.34 909.5  41.5 909.5  C 33.66 909.5  27.5 903.78  27.5 896.5  C 27.5 889.22  33.66 883.5  41.5 883.5  Z " stroke-width="1" stroke="#797979" fill="none" />
  </g>
</svg>