<?xml version="1.0" encoding="utf-8"?>
<svg version="1.1" xmlns:xlink="http://www.w3.org/1999/xlink" width="52px" height="52px" xmlns="http://www.w3.org/2000/svg">
  <g transform="matrix(1 0 0 1 -161 -1711 )">
    <path d="M 187 1711  C 201.56 1711  213 1722.44  213 1737  C 213 1751.56  201.56 1763  187 1763  C 172.44 1763  161 1751.56  161 1737  C 161 1722.44  172.44 1711  187 1711  Z " fill-rule="nonzero" fill="#ffffff" stroke="none" />
    <path d="M 187 1711.5  C 201.28 1711.5  212.5 1722.72  212.5 1737  C 212.5 1751.28  201.28 1762.5  187 1762.5  C 172.72 1762.5  161.5 1751.28  161.5 1737  C 161.5 1722.72  172.72 1711.5  187 1711.5  Z " stroke-width="1" stroke="#797979" fill="none" />
  </g>
</svg>