<?xml version="1.0" encoding="utf-8"?>
<svg version="1.1" xmlns:xlink="http://www.w3.org/1999/xlink" width="39px" height="39px" xmlns="http://www.w3.org/2000/svg">
  <g transform="matrix(1 0 0 1 -677 -83 )">
    <path d="M 696.5 83  C 707.42 83  716 91.58  716 102.5  C 716 113.42  707.42 122  696.5 122  C 685.58 122  677 113.42  677 102.5  C 677 91.58  685.58 83  696.5 83  Z " fill-rule="nonzero" fill="#ffffff" stroke="none" />
    <path d="M 696.5 83.5  C 707.14 83.5  715.5 91.86  715.5 102.5  C 715.5 113.14  707.14 121.5  696.5 121.5  C 685.86 121.5  677.5 113.14  677.5 102.5  C 677.5 91.86  685.86 83.5  696.5 83.5  Z " stroke-width="1" stroke="#797979" fill="none" />
  </g>
</svg>