<?xml version="1.0" encoding="utf-8"?>
<svg version="1.1" xmlns:xlink="http://www.w3.org/1999/xlink" width="333px" height="97px" xmlns="http://www.w3.org/2000/svg">
  <g transform="matrix(1 0 0 1 -25 -156 )">
    <path d="M 25 156  L 358 156  L 358 253  L 25 253  L 25 156  " fill-rule="nonzero" fill="#cccccc" stroke="none" />
    <path d="M 32 163  L 351 163  L 351 246  L 32 246  L 32 163  " fill-rule="nonzero" fill="#ffffff" stroke="none" />
    <path d="M 205.435 185.10000000000002  C 201.361 185.10000000000002  198.16 181.89900000000003  198.16 177.82500000000002  C 198.16 173.751  201.361 170.55  205.435 170.55  C 209.50900000000001 170.55  212.71 173.751  212.71 177.82500000000002  C 212.71 181.89900000000003  209.50900000000001 185.10000000000002  205.435 185.10000000000002  " fill-rule="nonzero" fill="#cccccc" stroke="none" />
    <path d="M 35 244  L 35 201.1  L 113.5 181.6  L 223.4 230.36756756756756  L 286.20000000000005 193.3  L 349 230.36756756756756  L 349 244  L 35 244  " fill-rule="nonzero" fill="#169bd5" stroke="none" />
  </g>
</svg>