<?xml version="1.0" encoding="utf-8"?>
<svg version="1.1" xmlns:xlink="http://www.w3.org/1999/xlink" width="43px" height="43px" xmlns="http://www.w3.org/2000/svg">
  <g transform="matrix(1 0 0 1 -944 -988 )">
    <path d="M 965.5 988  C 977.54 988  987 997.46  987 1009.5  C 987 1021.54  977.54 1031  965.5 1031  C 953.46 1031  944 1021.54  944 1009.5  C 944 997.46  953.46 988  965.5 988  Z " fill-rule="nonzero" fill="#ffffff" stroke="none" />
    <path d="M 965.5 988.5  C 977.26 988.5  986.5 997.74  986.5 1009.5  C 986.5 1021.26  977.26 1030.5  965.5 1030.5  C 953.74 1030.5  944.5 1021.26  944.5 1009.5  C 944.5 997.74  953.74 988.5  965.5 988.5  Z " stroke-width="1" stroke="#797979" fill="none" />
  </g>
</svg>