<?xml version="1.0" encoding="utf-8"?>
<svg version="1.1" xmlns:xlink="http://www.w3.org/1999/xlink" width="52px" height="52px" xmlns="http://www.w3.org/2000/svg">
  <g transform="matrix(1 0 0 1 -311 -9 )">
    <path d="M 337 9  C 351.56 9  363 20.439999999999998  363 35  C 363 49.56  351.56 61  337 61  C 322.44 61  311 49.56  311 35  C 311 20.439999999999998  322.44 9  337 9  Z " fill-rule="nonzero" fill="#ffffff" stroke="none" />
    <path d="M 337 9.5  C 351.28 9.5  362.5 20.72  362.5 35  C 362.5 49.28  351.28 60.5  337 60.5  C 322.72 60.5  311.5 49.28  311.5 35  C 311.5 20.72  322.72 9.5  337 9.5  Z " stroke-width="1" stroke="#797979" fill="none" />
  </g>
</svg>