<?xml version="1.0" encoding="utf-8"?>
<svg version="1.1" xmlns:xlink="http://www.w3.org/1999/xlink" width="61px" height="61px" xmlns="http://www.w3.org/2000/svg">
  <g transform="matrix(1 0 0 1 -279 -111 )">
    <path d="M 309.5 111  C 326.58 111  340 124.42  340 141.5  C 340 158.57999999999998  326.58 172  309.5 172  C 292.42 172  279 158.57999999999998  279 141.5  C 279 124.42  292.42 111  309.5 111  Z " fill-rule="nonzero" fill="#ffffff" stroke="none" />
    <path d="M 309.5 111.5  C 326.3 111.5  339.5 124.7  339.5 141.5  C 339.5 158.3  326.3 171.5  309.5 171.5  C 292.7 171.5  279.5 158.3  279.5 141.5  C 279.5 124.7  292.7 111.5  309.5 111.5  Z " stroke-width="1" stroke="#797979" fill="none" />
  </g>
</svg>