<?xml version="1.0" encoding="utf-8"?>
<svg version="1.1" xmlns:xlink="http://www.w3.org/1999/xlink" width="45px" height="39px" xmlns="http://www.w3.org/2000/svg">
  <g transform="matrix(1 0 0 1 -290 -142 )">
    <path d="M 290 142  L 335 142  L 335 181  L 290 181  L 290 142  " fill-rule="nonzero" fill="#cccccc" stroke="none" />
    <path d="M 293 145  L 332 145  L 332 178  L 293 178  L 293 145  " fill-rule="nonzero" fill="#ffffff" stroke="none" />
    <path d="M 316.325 153.7  C 314.68699999999995 153.7  313.4 152.41299999999998  313.4 150.77499999999998  C 313.4 149.137  314.68699999999995 147.85  316.325 147.85  C 317.963 147.85  319.25 149.137  319.25 150.77499999999998  C 319.25 152.41299999999998  317.963 153.7  316.325 153.7  " fill-rule="nonzero" fill="#cccccc" stroke="none" />
    <path d="M 294 177  L 294 159.95  L 303.25 152.2  L 316.2 160.88  L 323.6 156.85  L 331 160.88  L 331 177  L 294 177  " fill-rule="nonzero" fill="#169bd5" stroke="none" />
  </g>
</svg>