<?xml version="1.0" encoding="utf-8"?>
<svg version="1.1" xmlns:xlink="http://www.w3.org/1999/xlink" width="45px" height="39px" xmlns="http://www.w3.org/2000/svg">
  <g transform="matrix(1 0 0 1 -130 -280 )">
    <path d="M 130 280  L 175 280  L 175 319  L 130 319  L 130 280  " fill-rule="nonzero" fill="#cccccc" stroke="none" />
    <path d="M 133 283  L 172 283  L 172 316  L 133 316  L 133 283  " fill-rule="nonzero" fill="#ffffff" stroke="none" />
    <path d="M 156.325 291.70000000000005  C 154.687 291.70000000000005  153.4 290.41300000000007  153.4 288.77500000000003  C 153.4 287.137  154.687 285.85  156.325 285.85  C 157.963 285.85  159.25 287.137  159.25 288.77500000000003  C 159.25 290.41300000000007  157.963 291.70000000000005  156.325 291.70000000000005  " fill-rule="nonzero" fill="#cccccc" stroke="none" />
    <path d="M 134 315  L 134 297.95  L 143.25 290.2  L 156.2 298.88  L 163.6 294.85  L 171 298.88  L 171 315  L 134 315  " fill-rule="nonzero" fill="#169bd5" stroke="none" />
  </g>
</svg>