<?xml version="1.0" encoding="utf-8"?>
<svg version="1.1" xmlns:xlink="http://www.w3.org/1999/xlink" width="350px" height="70px" xmlns="http://www.w3.org/2000/svg">
  <g transform="matrix(1 0 0 1 -13 -333 )">
    <path d="M 13 333  L 363 333  L 363 403  L 13 403  L 13 333  " fill-rule="nonzero" fill="#cccccc" stroke="none" />
    <path d="M 18 338  L 358 338  L 358 398  L 18 398  L 18 338  " fill-rule="nonzero" fill="#ffffff" stroke="none" />
    <path d="M 200.25 354  C 197.31 354  195 351.69  195 348.75  C 195 345.81  197.31 343.5  200.25 343.5  C 203.19 343.5  205.5 345.81  205.5 348.75  C 205.5 351.69  203.19 354  200.25 354  " fill-rule="nonzero" fill="#cccccc" stroke="none" />
    <path d="M 20 396  L 20 365.2  L 104 351.2  L 221.6 389.28  L 288.8 359.6  L 356 389.28  L 356 396  L 20 396  " fill-rule="nonzero" fill="#169bd5" stroke="none" />
  </g>
</svg>