<?xml version="1.0" encoding="utf-8"?>
<svg version="1.1" xmlns:xlink="http://www.w3.org/1999/xlink" width="116px" height="76px" xmlns="http://www.w3.org/2000/svg">
  <g transform="matrix(1 0 0 1 -13 -418 )">
    <path d="M 13 418  L 129 418  L 129 494  L 13 494  L 13 418  " fill-rule="nonzero" fill="#cccccc" stroke="none" />
    <path d="M 18 423  L 124 423  L 124 489  L 18 489  L 18 423  " fill-rule="nonzero" fill="#ffffff" stroke="none" />
    <path d="M 79.02 440.79999999999995  C 75.82799999999999 440.79999999999995  73.32 438.292  73.32 435.09999999999997  C 73.32 431.90799999999996  75.82799999999999 429.4  79.02 429.4  C 82.212 429.4  84.72 431.90799999999996  84.72 435.09999999999997  C 84.72 438.292  82.212 440.79999999999995  79.02 440.79999999999995  " fill-rule="nonzero" fill="#cccccc" stroke="none" />
    <path d="M 20 487  L 20 452.9  L 45.5 437.4  L 81.19999999999999 462.6275862068966  L 101.60000000000001 446.7  L 122 462.6275862068966  L 122 487  L 20 487  " fill-rule="nonzero" fill="#169bd5" stroke="none" />
  </g>
</svg>