<?xml version="1.0" encoding="utf-8"?>
<svg version="1.1" xmlns:xlink="http://www.w3.org/1999/xlink" width="350px" height="70px" xmlns="http://www.w3.org/2000/svg">
  <g transform="matrix(1 0 0 1 -13 -395 )">
    <path d="M 13 395  L 363 395  L 363 465  L 13 465  L 13 395  " fill-rule="nonzero" fill="#cccccc" stroke="none" />
    <path d="M 18 400  L 358 400  L 358 460  L 18 460  L 18 400  " fill-rule="nonzero" fill="#ffffff" stroke="none" />
    <path d="M 200.25 416  C 197.31 416  195 413.69  195 410.75  C 195 407.81  197.31 405.5  200.25 405.5  C 203.19 405.5  205.5 407.81  205.5 410.75  C 205.5 413.69  203.19 416  200.25 416  " fill-rule="nonzero" fill="#cccccc" stroke="none" />
    <path d="M 20 458  L 20 427.2  L 104 413.2  L 221.6 451.28  L 288.8 421.6  L 356 451.28  L 356 458  L 20 458  " fill-rule="nonzero" fill="#169bd5" stroke="none" />
  </g>
</svg>