<?xml version="1.0" encoding="utf-8"?>
<svg version="1.1" xmlns:xlink="http://www.w3.org/1999/xlink" width="55px" height="58px" xmlns="http://www.w3.org/2000/svg">
  <g transform="matrix(1 0 0 1 -40 -529 )">
    <path d="M 40 529  L 95 529  L 95 587  L 40 587  L 40 529  " fill-rule="nonzero" fill="#cccccc" stroke="none" />
    <path d="M 44 533  L 91 533  L 91 583  L 44 583  L 44 533  " fill-rule="nonzero" fill="#ffffff" stroke="none" />
    <path d="M 72.725 545.95  C 70.41499999999999 545.95  68.6 544.135  68.6 541.825  C 68.6 539.5150000000001  70.41499999999999 537.7  72.725 537.7  C 75.035 537.7  76.85 539.5150000000001  76.85 541.825  C 76.85 544.135  75.035 545.95  72.725 545.95  " fill-rule="nonzero" fill="#cccccc" stroke="none" />
    <path d="M 46 582  L 46 556.15  L 57 544.4  L 72.4 553.8  L 81.2 551.45  L 90 553.8  L 90 582  L 46 582  " fill-rule="nonzero" fill="#169bd5" stroke="none" />
  </g>
</svg>