<?xml version="1.0" encoding="utf-8"?>
<svg version="1.1" xmlns:xlink="http://www.w3.org/1999/xlink" width="12px" height="12px" xmlns="http://www.w3.org/2000/svg">
  <g transform="matrix(1 0 0 1 -64 -521 )">
    <path d="M 70 521  C 73.36 521  76 523.64  76 527  C 76 530.36  73.36 533  70 533  C 66.64 533  64 530.36  64 527  C 64 523.64  66.64 521  70 521  Z " fill-rule="nonzero" fill="#ffffff" stroke="none" />
    <path d="M 70 521.5  C 73.08 521.5  75.5 523.92  75.5 527  C 75.5 530.08  73.08 532.5  70 532.5  C 66.92 532.5  64.5 530.08  64.5 527  C 64.5 523.92  66.92 521.5  70 521.5  Z " stroke-width="1" stroke="#797979" fill="none" />
  </g>
</svg>