<?xml version="1.0" encoding="utf-8"?>
<svg version="1.1" xmlns:xlink="http://www.w3.org/1999/xlink" width="12px" height="12px" xmlns="http://www.w3.org/2000/svg">
  <g transform="matrix(1 0 0 1 -45 -521 )">
    <path d="M 51 521  C 54.36 521  57 523.64  57 527  C 57 530.36  54.36 533  51 533  C 47.64 533  45 530.36  45 527  C 45 523.64  47.64 521  51 521  Z " fill-rule="nonzero" fill="#d7d7d7" stroke="none" />
    <path d="M 51 521.5  C 54.08 521.5  56.5 523.92  56.5 527  C 56.5 530.08  54.08 532.5  51 532.5  C 47.92 532.5  45.5 530.08  45.5 527  C 45.5 523.92  47.92 521.5  51 521.5  Z " stroke-width="1" stroke="#797979" fill="none" />
  </g>
</svg>