<?xml version="1.0" encoding="utf-8"?>
<svg version="1.1" xmlns:xlink="http://www.w3.org/1999/xlink" width="45px" height="45px" xmlns="http://www.w3.org/2000/svg">
  <g transform="matrix(1 0 0 1 -16 -16 )">
    <path d="M 38.5 16  C 51.1 16  61 25.9  61 38.5  C 61 51.1  51.1 61  38.5 61  C 25.9 61  16 51.1  16 38.5  C 16 25.9  25.9 16  38.5 16  Z " fill-rule="nonzero" fill="#ffffff" stroke="none" />
    <path d="M 38.5 16.5  C 50.82 16.5  60.5 26.18  60.5 38.5  C 60.5 50.82  50.82 60.5  38.5 60.5  C 26.18 60.5  16.5 50.82  16.5 38.5  C 16.5 26.18  26.18 16.5  38.5 16.5  Z " stroke-width="1" stroke="#797979" fill="none" />
  </g>
</svg>