<?xml version="1.0" encoding="utf-8"?>
<svg version="1.1" xmlns:xlink="http://www.w3.org/1999/xlink" width="86px" height="84px" xmlns="http://www.w3.org/2000/svg">
  <g transform="matrix(1 0 0 1 -16 -1217 )">
    <path d="M 16 1217  L 102 1217  L 102 1301  L 16 1301  L 16 1217  " fill-rule="nonzero" fill="#cccccc" stroke="none" />
    <path d="M 22 1223  L 96 1223  L 96 1295  L 22 1295  L 22 1223  " fill-rule="nonzero" fill="#ffffff" stroke="none" />
    <path d="M 67.02 1242.1999999999998  C 63.492 1242.1999999999998  60.72 1239.4279999999999  60.72 1235.8999999999999  C 60.72 1232.3719999999998  63.492 1229.6  67.02 1229.6  C 70.548 1229.6  73.32 1232.3719999999998  73.32 1235.8999999999999  C 73.32 1239.4279999999999  70.548 1242.1999999999998  67.02 1242.1999999999998  " fill-rule="nonzero" fill="#cccccc" stroke="none" />
    <path d="M 24 1293  L 24 1255.6  L 41.5 1238.6  L 66 1253.1488372093024  L 80 1248.8  L 94 1253.1488372093024  L 94 1293  L 24 1293  " fill-rule="nonzero" fill="#169bd5" stroke="none" />
  </g>
</svg>