<?xml version="1.0" encoding="utf-8"?>
<svg version="1.1" xmlns:xlink="http://www.w3.org/1999/xlink" width="86px" height="84px" xmlns="http://www.w3.org/2000/svg">
  <g transform="matrix(1 0 0 1 -110 -1217 )">
    <path d="M 110 1217  L 196 1217  L 196 1301  L 110 1301  L 110 1217  " fill-rule="nonzero" fill="#cccccc" stroke="none" />
    <path d="M 116 1223  L 190 1223  L 190 1295  L 116 1295  L 116 1223  " fill-rule="nonzero" fill="#ffffff" stroke="none" />
    <path d="M 161.01999999999998 1242.1999999999998  C 157.492 1242.1999999999998  154.72 1239.4279999999999  154.72 1235.8999999999999  C 154.72 1232.3719999999998  157.492 1229.6  161.01999999999998 1229.6  C 164.548 1229.6  167.32 1232.3719999999998  167.32 1235.8999999999999  C 167.32 1239.4279999999999  164.548 1242.1999999999998  161.01999999999998 1242.1999999999998  " fill-rule="nonzero" fill="#cccccc" stroke="none" />
    <path d="M 118 1293  L 118 1255.6  L 135.5 1238.6  L 160 1253.1488372093024  L 174 1248.8  L 188 1253.1488372093024  L 188 1293  L 118 1293  " fill-rule="nonzero" fill="#169bd5" stroke="none" />
  </g>
</svg>