<?xml version="1.0" encoding="utf-8"?>
<svg version="1.1" xmlns:xlink="http://www.w3.org/1999/xlink" width="86px" height="84px" xmlns="http://www.w3.org/2000/svg">
  <g transform="matrix(1 0 0 1 -204 -1217 )">
    <path d="M 204 1217  L 290 1217  L 290 1301  L 204 1301  L 204 1217  " fill-rule="nonzero" fill="#cccccc" stroke="none" />
    <path d="M 210 1223  L 284 1223  L 284 1295  L 210 1295  L 210 1223  " fill-rule="nonzero" fill="#ffffff" stroke="none" />
    <path d="M 255.01999999999998 1242.1999999999998  C 251.492 1242.1999999999998  248.72 1239.4279999999999  248.72 1235.8999999999999  C 248.72 1232.3719999999998  251.492 1229.6  255.01999999999998 1229.6  C 258.548 1229.6  261.32 1232.3719999999998  261.32 1235.8999999999999  C 261.32 1239.4279999999999  258.548 1242.1999999999998  255.01999999999998 1242.1999999999998  " fill-rule="nonzero" fill="#cccccc" stroke="none" />
    <path d="M 212 1293  L 212 1255.6  L 229.5 1238.6  L 254 1253.1488372093024  L 268 1248.8  L 282 1253.1488372093024  L 282 1293  L 212 1293  " fill-rule="nonzero" fill="#169bd5" stroke="none" />
  </g>
</svg>