<?xml version="1.0" encoding="utf-8"?>
<svg version="1.1" xmlns:xlink="http://www.w3.org/1999/xlink" width="92px" height="88px" xmlns="http://www.w3.org/2000/svg">
  <g transform="matrix(1 0 0 1 -21 -392 )">
    <path d="M 21 392  L 113 392  L 113 480  L 21 480  L 21 392  " fill-rule="nonzero" fill="#cccccc" stroke="none" />
    <path d="M 27 398  L 107 398  L 107 474  L 27 474  L 27 398  " fill-rule="nonzero" fill="#ffffff" stroke="none" />
    <path d="M 75.44 418.4  C 71.744 418.4  68.84 415.496  68.84 411.79999999999995  C 68.84 408.104  71.744 405.2  75.44 405.2  C 79.136 405.2  82.04 408.104  82.04 411.79999999999995  C 82.04 415.496  79.136 418.4  75.44 418.4  " fill-rule="nonzero" fill="#cccccc" stroke="none" />
    <path d="M 29 472  L 29 432.4  L 48 414.4  L 74.6 430.67826086956524  L 89.80000000000001 425.2  L 105 430.67826086956524  L 105 472  L 29 472  " fill-rule="nonzero" fill="#169bd5" stroke="none" />
  </g>
</svg>