<?xml version="1.0" encoding="utf-8"?>
<svg version="1.1" xmlns:xlink="http://www.w3.org/1999/xlink" width="154px" height="88px" xmlns="http://www.w3.org/2000/svg">
  <g transform="matrix(1 0 0 1 -116 -83 )">
    <path d="M 116 83  L 270 83  L 270 171  L 116 171  L 116 83  " fill-rule="nonzero" fill="#cccccc" stroke="none" />
    <path d="M 122 89  L 264 89  L 264 165  L 122 165  L 122 89  " fill-rule="nonzero" fill="#ffffff" stroke="none" />
    <path d="M 202.67999999999998 109.4  C 198.98399999999998 109.4  196.07999999999998 106.49600000000001  196.07999999999998 102.80000000000001  C 196.07999999999998 99.10400000000001  198.98399999999998 96.2  202.67999999999998 96.2  C 206.37599999999998 96.2  209.27999999999997 99.10400000000001  209.27999999999997 102.80000000000001  C 209.27999999999997 106.49600000000001  206.37599999999998 109.4  202.67999999999998 109.4  " fill-rule="nonzero" fill="#cccccc" stroke="none" />
    <path d="M 124 163  L 124 123.4  L 158.5 105.4  L 206.8 138.31428571428572  L 234.4 116.19999999999999  L 262 138.31428571428572  L 262 163  L 124 163  " fill-rule="nonzero" fill="#169bd5" stroke="none" />
  </g>
</svg>