<?xml version="1.0" encoding="utf-8"?>
<svg version="1.1" xmlns:xlink="http://www.w3.org/1999/xlink" width="99px" height="93px" xmlns="http://www.w3.org/2000/svg">
  <g transform="matrix(1 0 0 1 -19 -87 )">
    <path d="M 19 87  L 118 87  L 118 180  L 19 180  L 19 87  " fill-rule="nonzero" fill="#cccccc" stroke="none" />
    <path d="M 26 94  L 111 94  L 111 173  L 26 173  L 26 94  " fill-rule="nonzero" fill="#ffffff" stroke="none" />
    <path d="M 77.45500000000001 114.9  C 73.549 114.9  70.48 111.831  70.48 107.92500000000001  C 70.48 104.019  73.549 100.95  77.45500000000001 100.95  C 81.361 100.95  84.43 104.019  84.43 107.92500000000001  C 84.43 111.831  81.361 114.9  77.45500000000001 114.9  " fill-rule="nonzero" fill="#cccccc" stroke="none" />
    <path d="M 29 171  L 29 130.3  L 49 111.8  L 77 129.29090909090908  L 93 122.9  L 109 129.29090909090908  L 109 171  L 29 171  " fill-rule="nonzero" fill="#169bd5" stroke="none" />
  </g>
</svg>