<?xml version="1.0" encoding="utf-8"?>
<svg version="1.1" xmlns:xlink="http://www.w3.org/1999/xlink" width="41px" height="41px" xmlns="http://www.w3.org/2000/svg">
  <g transform="matrix(1 0 0 1 -1996 -515 )">
    <path d="M 2016.5 515  C 2027.98 515  2037 524.02  2037 535.5  C 2037 546.98  2027.98 556  2016.5 556  C 2005.02 556  1996 546.98  1996 535.5  C 1996 524.02  2005.02 515  2016.5 515  Z " fill-rule="nonzero" fill="#ffffff" stroke="none" />
    <path d="M 2016.5 515.5  C 2027.7 515.5  2036.5 524.3  2036.5 535.5  C 2036.5 546.7  2027.7 555.5  2016.5 555.5  C 2005.3 555.5  1996.5 546.7  1996.5 535.5  C 1996.5 524.3  2005.3 515.5  2016.5 515.5  Z " stroke-width="1" stroke="#797979" fill="none" />
  </g>
</svg>