<?xml version="1.0" encoding="utf-8"?>
<svg version="1.1" xmlns:xlink="http://www.w3.org/1999/xlink" width="30px" height="30px" xmlns="http://www.w3.org/2000/svg">
  <defs>
    <mask fill="white" id="clip109">
      <path d="M 34 117  C 25.675 117  19 110.325  19 102  L 19 102  C 19 93.675  25.675 87  34 87  L 34 87  C 42.325 87  49 93.675  49 102  L 49 102  C 49 110.325  42.325 117  34 117  " fill-rule="evenodd" />
    </mask>
  </defs>
  <g transform="matrix(1 0 0 1 -19 -87 )">
    <path d="M 19 87  L 49 87  L 49 117  L 19 117  L 19 87  " fill-rule="nonzero" fill="#cccccc" stroke="none" mask="url(#clip109)" />
    <path d="M 21 89  L 47 89  L 47 115  L 21 115  L 21 89  " fill-rule="nonzero" fill="#ffffff" stroke="none" mask="url(#clip109)" />
    <path d="M 36.85 96  C 35.59 96  34.6 95.01  34.6 93.75  C 34.6 92.49  35.59 91.5  36.85 91.5  C 38.11 91.5  39.1 92.49  39.1 93.75  C 39.1 95.01  38.11 96  36.85 96  " fill-rule="nonzero" fill="#cccccc" stroke="none" mask="url(#clip109)" />
    <path d="M 22 114  L 22 100.8  L 28 94.8  L 36.4 99.6  L 41.2 98.4  L 46 99.6  L 46 114  L 22 114  " fill-rule="nonzero" fill="#169bd5" stroke="none" mask="url(#clip109)" />
  </g>
</svg>