<?xml version="1.0" encoding="utf-8"?>
<svg version="1.1" xmlns:xlink="http://www.w3.org/1999/xlink" width="91px" height="134px" xmlns="http://www.w3.org/2000/svg">
  <g transform="matrix(1 0 0 1 -2160 -232 )">
    <path d="M 2160 232  L 2251 232  L 2251 366  L 2160 366  L 2160 232  " fill-rule="nonzero" fill="#cccccc" stroke="none" />
    <path d="M 2166 238  L 2245 238  L 2245 360  L 2166 360  L 2166 238  " fill-rule="nonzero" fill="#ffffff" stroke="none" />
    <path d="M 2214.1450000000004 265.75  C 2210.3230000000003 265.75  2207.32 262.747  2207.32 258.925  C 2207.32 255.103  2210.3230000000003 252.1  2214.1450000000004 252.1  C 2217.9670000000006 252.1  2220.9700000000003 255.103  2220.9700000000003 258.925  C 2220.9700000000003 262.747  2217.9670000000006 265.75  2214.1450000000004 265.75  " fill-rule="nonzero" fill="#cccccc" stroke="none" />
    <path d="M 2169 358  L 2169 293.65  L 2187.5 264.4  L 2213.4 287.8  L 2228.2 281.95  L 2243 287.8  L 2243 358  L 2169 358  " fill-rule="nonzero" fill="#169bd5" stroke="none" />
  </g>
</svg>