<?xml version="1.0" encoding="utf-8"?>
<svg version="1.1" xmlns:xlink="http://www.w3.org/1999/xlink" width="157px" height="137px" xmlns="http://www.w3.org/2000/svg">
  <g transform="matrix(1 0 0 1 -13 -207 )">
    <path d="M 13 207  L 170 207  L 170 344  L 13 344  L 13 207  " fill-rule="nonzero" fill="#cccccc" stroke="none" />
    <path d="M 23 217  L 160 217  L 160 334  L 23 334  L 23 217  " fill-rule="nonzero" fill="#ffffff" stroke="none" />
    <path d="M 104.91499999999999 248.10000000000002  C 99.161 248.10000000000002  94.64 243.579  94.64 237.82500000000002  C 94.64 232.07100000000003  99.161 227.55  104.91499999999999 227.55  C 110.669 227.55  115.19 232.07100000000003  115.19 237.82500000000002  C 115.19 243.579  110.669 248.10000000000002  104.91499999999999 248.10000000000002  " fill-rule="nonzero" fill="#cccccc" stroke="none" />
    <path d="M 27 331  L 27 270.5  L 59.5 243  L 105 273.4076433121019  L 131 259.5  L 157 273.4076433121019  L 157 331  L 27 331  " fill-rule="nonzero" fill="#169bd5" stroke="none" />
  </g>
</svg>