<?xml version="1.0" encoding="utf-8"?>
<svg version="1.1" xmlns:xlink="http://www.w3.org/1999/xlink" width="157px" height="137px" xmlns="http://www.w3.org/2000/svg">
  <g transform="matrix(1 0 0 1 -13 -163 )">
    <path d="M 13 163  L 170 163  L 170 300  L 13 300  L 13 163  " fill-rule="nonzero" fill="#cccccc" stroke="none" />
    <path d="M 23 173  L 160 173  L 160 290  L 23 290  L 23 173  " fill-rule="nonzero" fill="#ffffff" stroke="none" />
    <path d="M 104.91499999999999 204.10000000000002  C 99.161 204.10000000000002  94.64 199.579  94.64 193.82500000000002  C 94.64 188.07100000000003  99.161 183.55  104.91499999999999 183.55  C 110.669 183.55  115.19 188.07100000000003  115.19 193.82500000000002  C 115.19 199.579  110.669 204.10000000000002  104.91499999999999 204.10000000000002  " fill-rule="nonzero" fill="#cccccc" stroke="none" />
    <path d="M 27 287  L 27 226.5  L 59.5 199  L 105 229.40764331210192  L 131 215.5  L 157 229.40764331210192  L 157 287  L 27 287  " fill-rule="nonzero" fill="#169bd5" stroke="none" />
  </g>
</svg>