<?xml version="1.0" encoding="utf-8"?>
<svg version="1.1" xmlns:xlink="http://www.w3.org/1999/xlink" width="85px" height="65px" xmlns="http://www.w3.org/2000/svg">
  <g transform="matrix(1 0 0 1 -258 -79 )">
    <path d="M 258 79  L 343 79  L 343 144  L 258 144  L 258 79  " fill-rule="nonzero" fill="#cccccc" stroke="none" />
    <path d="M 263 84  L 338 84  L 338 139  L 263 139  L 263 84  " fill-rule="nonzero" fill="#ffffff" stroke="none" />
    <path d="M 307.075 98.5  C 304.34499999999997 98.5  302.2 96.355  302.2 93.625  C 302.2 90.895  304.34499999999997 88.75  307.075 88.75  C 309.805 88.75  311.95 90.895  311.95 93.625  C 311.95 96.355  309.805 98.5  307.075 98.5  " fill-rule="nonzero" fill="#cccccc" stroke="none" />
    <path d="M 265 138  L 265 109.4  L 283 96.4  L 308.2 114.14117647058823  L 322.6 104.19999999999999  L 337 114.14117647058823  L 337 138  L 265 138  " fill-rule="nonzero" fill="#169bd5" stroke="none" />
  </g>
</svg>