<?xml version="1.0" encoding="utf-8"?>
<svg version="1.1" xmlns:xlink="http://www.w3.org/1999/xlink" width="13px" height="13px" viewBox="1728 805  13 13" xmlns="http://www.w3.org/2000/svg">
  <path d="M 1734.5 805  C 1738.14 805  1741 807.86  1741 811.5  C 1741 815.14  1738.14 818  1734.5 818  C 1730.86 818  1728 815.14  1728 811.5  C 1728 807.86  1730.86 805  1734.5 805  Z " fill-rule="nonzero" fill="#f0f0f0" stroke="none" />
  <path d="M 1734.5 805.5  C 1737.86 805.5  1740.5 808.14  1740.5 811.5  C 1740.5 814.86  1737.86 817.5  1734.5 817.5  C 1731.14 817.5  1728.5 814.86  1728.5 811.5  C 1728.5 808.14  1731.14 805.5  1734.5 805.5  Z " stroke-width="1" stroke="#797979" fill="none" />
  <path d="M 1734.5 814.75  C 1732.68 814.75  1731.25 813.32  1731.25 811.5  C 1731.25 809.68  1732.68 808.25  1734.5 808.25  C 1736.32 808.25  1737.75 809.68  1737.75 811.5  C 1737.75 813.32  1736.32 814.75  1734.5 814.75  " fill-rule="nonzero" fill="#797979" stroke="none" />
</svg>