<?xml version="1.0" encoding="utf-8"?>
<svg version="1.1" xmlns:xlink="http://www.w3.org/1999/xlink" width="13px" height="13px" viewBox="1728 562  13 13" xmlns="http://www.w3.org/2000/svg">
  <path d="M 1734.5 562  C 1738.14 562  1741 564.86  1741 568.5  C 1741 572.14  1738.14 575  1734.5 575  C 1730.86 575  1728 572.14  1728 568.5  C 1728 564.86  1730.86 562  1734.5 562  Z " fill-rule="nonzero" fill="#f0f0f0" stroke="none" />
  <path d="M 1734.5 562.5  C 1737.86 562.5  1740.5 565.14  1740.5 568.5  C 1740.5 571.86  1737.86 574.5  1734.5 574.5  C 1731.14 574.5  1728.5 571.86  1728.5 568.5  C 1728.5 565.14  1731.14 562.5  1734.5 562.5  Z " stroke-width="1" stroke="#797979" fill="none" />
  <path d="M 1734.5 571.75  C 1732.68 571.75  1731.25 570.32  1731.25 568.5  C 1731.25 566.68  1732.68 565.25  1734.5 565.25  C 1736.32 565.25  1737.75 566.68  1737.75 568.5  C 1737.75 570.32  1736.32 571.75  1734.5 571.75  " fill-rule="nonzero" fill="#797979" stroke="none" />
</svg>