<?xml version="1.0" encoding="utf-8"?>
<svg version="1.1" xmlns:xlink="http://www.w3.org/1999/xlink" width="13px" height="13px" viewBox="1728 584  13 13" xmlns="http://www.w3.org/2000/svg">
  <path d="M 1734.5 584  C 1738.14 584  1741 586.86  1741 590.5  C 1741 594.14  1738.14 597  1734.5 597  C 1730.86 597  1728 594.14  1728 590.5  C 1728 586.86  1730.86 584  1734.5 584  Z " fill-rule="nonzero" fill="#f0f0f0" stroke="none" />
  <path d="M 1734.5 584.5  C 1737.86 584.5  1740.5 587.14  1740.5 590.5  C 1740.5 593.86  1737.86 596.5  1734.5 596.5  C 1731.14 596.5  1728.5 593.86  1728.5 590.5  C 1728.5 587.14  1731.14 584.5  1734.5 584.5  Z " stroke-width="1" stroke="#797979" fill="none" />
  <path d="M 1734.5 593.75  C 1732.68 593.75  1731.25 592.32  1731.25 590.5  C 1731.25 588.68  1732.68 587.25  1734.5 587.25  C 1736.32 587.25  1737.75 588.68  1737.75 590.5  C 1737.75 592.32  1736.32 593.75  1734.5 593.75  " fill-rule="nonzero" fill="#797979" stroke="none" />
</svg>