<?xml version="1.0" encoding="utf-8"?>
<svg version="1.1" xmlns:xlink="http://www.w3.org/1999/xlink" width="348px" height="197px" xmlns="http://www.w3.org/2000/svg">
  <g transform="matrix(1 0 0 1 -460 -952 )">
    <path d="M 460 952  L 808 952  L 808 1149  L 460 1149  L 460 952  " fill-rule="nonzero" fill="#cccccc" stroke="none" />
    <path d="M 474 966  L 794 966  L 794 1135  L 474 1135  L 474 966  " fill-rule="nonzero" fill="#ffffff" stroke="none" />
    <path d="M 655.735 1011.0999999999999  C 647.461 1011.0999999999999  640.96 1004.5989999999999  640.96 996.3249999999999  C 640.96 988.0509999999999  647.461 981.55  655.735 981.55  C 664.009 981.55  670.51 988.0509999999999  670.51 996.3249999999999  C 670.51 1004.5989999999999  664.009 1011.0999999999999  655.735 1011.0999999999999  " fill-rule="nonzero" fill="#cccccc" stroke="none" />
    <path d="M 479 1130  L 479 1042.55  L 556.5 1002.8  L 665 1075.9948275862068  L 727 1026.65  L 789 1075.9948275862068  L 789 1130  L 479 1130  " fill-rule="nonzero" fill="#169bd5" stroke="none" />
  </g>
</svg>