<?xml version="1.0" encoding="utf-8"?>
<svg version="1.1" xmlns:xlink="http://www.w3.org/1999/xlink" width="13px" height="13px" viewBox="545 591  13 13" xmlns="http://www.w3.org/2000/svg">
  <path d="M 551.5 591  C 555.14 591  558 593.86  558 597.5  C 558 601.14  555.14 604  551.5 604  C 547.86 604  545 601.14  545 597.5  C 545 593.86  547.86 591  551.5 591  Z " fill-rule="nonzero" fill="#f0f0f0" stroke="none" />
  <path d="M 551.5 591.5  C 554.86 591.5  557.5 594.14  557.5 597.5  C 557.5 600.86  554.86 603.5  551.5 603.5  C 548.14 603.5  545.5 600.86  545.5 597.5  C 545.5 594.14  548.14 591.5  551.5 591.5  Z " stroke-width="1" stroke="#797979" fill="none" />
  <path d="M 551.5 600.75  C 549.68 600.75  548.25 599.32  548.25 597.5  C 548.25 595.68  549.68 594.25  551.5 594.25  C 553.32 594.25  554.75 595.68  554.75 597.5  C 554.75 599.32  553.32 600.75  551.5 600.75  " fill-rule="nonzero" fill="#797979" stroke="none" />
</svg>