<?xml version="1.0" encoding="utf-8"?>
<svg version="1.1" xmlns:xlink="http://www.w3.org/1999/xlink" width="13px" height="13px" viewBox="642 591  13 13" xmlns="http://www.w3.org/2000/svg">
  <path d="M 648.5 591  C 652.14 591  655 593.86  655 597.5  C 655 601.14  652.14 604  648.5 604  C 644.86 604  642 601.14  642 597.5  C 642 593.86  644.86 591  648.5 591  Z " fill-rule="nonzero" fill="#ffffff" stroke="none" />
  <path d="M 648.5 591.5  C 651.86 591.5  654.5 594.14  654.5 597.5  C 654.5 600.86  651.86 603.5  648.5 603.5  C 645.14 603.5  642.5 600.86  642.5 597.5  C 642.5 594.14  645.14 591.5  648.5 591.5  Z " stroke-width="1" stroke="#797979" fill="none" />
  <path d="M 648.5 600.75  C 646.68 600.75  645.25 599.32  645.25 597.5  C 645.25 595.68  646.68 594.25  648.5 594.25  C 650.32 594.25  651.75 595.68  651.75 597.5  C 651.75 599.32  650.32 600.75  648.5 600.75  " fill-rule="nonzero" fill="#797979" stroke="none" />
</svg>