<?xml version="1.0" encoding="utf-8"?>
<svg version="1.1" xmlns:xlink="http://www.w3.org/1999/xlink" width="13px" height="13px" viewBox="739 591  13 13" xmlns="http://www.w3.org/2000/svg">
  <path d="M 745.5 591  C 749.14 591  752 593.86  752 597.5  C 752 601.14  749.14 604  745.5 604  C 741.86 604  739 601.14  739 597.5  C 739 593.86  741.86 591  745.5 591  Z " fill-rule="nonzero" fill="#ffffff" stroke="none" />
  <path d="M 745.5 591.5  C 748.86 591.5  751.5 594.14  751.5 597.5  C 751.5 600.86  748.86 603.5  745.5 603.5  C 742.14 603.5  739.5 600.86  739.5 597.5  C 739.5 594.14  742.14 591.5  745.5 591.5  Z " stroke-width="1" stroke="#797979" fill="none" />
  <path d="M 745.5 600.75  C 743.68 600.75  742.25 599.32  742.25 597.5  C 742.25 595.68  743.68 594.25  745.5 594.25  C 747.32 594.25  748.75 595.68  748.75 597.5  C 748.75 599.32  747.32 600.75  745.5 600.75  " fill-rule="nonzero" fill="#797979" stroke="none" />
</svg>