<?xml version="1.0" encoding="utf-8"?>
<svg version="1.1" xmlns:xlink="http://www.w3.org/1999/xlink" width="13px" height="13px" viewBox="545 670  13 13" xmlns="http://www.w3.org/2000/svg">
  <path d="M 551.5 670  C 555.14 670  558 672.86  558 676.5  C 558 680.14  555.14 683  551.5 683  C 547.86 683  545 680.14  545 676.5  C 545 672.86  547.86 670  551.5 670  Z " fill-rule="nonzero" fill="#ffffff" stroke="none" />
  <path d="M 551.5 670.5  C 554.86 670.5  557.5 673.14  557.5 676.5  C 557.5 679.86  554.86 682.5  551.5 682.5  C 548.14 682.5  545.5 679.86  545.5 676.5  C 545.5 673.14  548.14 670.5  551.5 670.5  Z " stroke-width="1" stroke="#797979" fill="none" />
  <path d="M 551.5 679.75  C 549.68 679.75  548.25 678.32  548.25 676.5  C 548.25 674.68  549.68 673.25  551.5 673.25  C 553.32 673.25  554.75 674.68  554.75 676.5  C 554.75 678.32  553.32 679.75  551.5 679.75  " fill-rule="nonzero" fill="#797979" stroke="none" />
</svg>