<?xml version="1.0" encoding="utf-8"?>
<svg version="1.1" xmlns:xlink="http://www.w3.org/1999/xlink" width="13px" height="13px" viewBox="642 670  13 13" xmlns="http://www.w3.org/2000/svg">
  <path d="M 648.5 670  C 652.14 670  655 672.86  655 676.5  C 655 680.14  652.14 683  648.5 683  C 644.86 683  642 680.14  642 676.5  C 642 672.86  644.86 670  648.5 670  Z " fill-rule="nonzero" fill="#ffffff" stroke="none" />
  <path d="M 648.5 670.5  C 651.86 670.5  654.5 673.14  654.5 676.5  C 654.5 679.86  651.86 682.5  648.5 682.5  C 645.14 682.5  642.5 679.86  642.5 676.5  C 642.5 673.14  645.14 670.5  648.5 670.5  Z " stroke-width="1" stroke="#797979" fill="none" />
  <path d="M 648.5 679.75  C 646.68 679.75  645.25 678.32  645.25 676.5  C 645.25 674.68  646.68 673.25  648.5 673.25  C 650.32 673.25  651.75 674.68  651.75 676.5  C 651.75 678.32  650.32 679.75  648.5 679.75  " fill-rule="nonzero" fill="#797979" stroke="none" />
</svg>