<?xml version="1.0" encoding="utf-8"?>
<svg version="1.1" xmlns:xlink="http://www.w3.org/1999/xlink" width="13px" height="13px" viewBox="914 591  13 13" xmlns="http://www.w3.org/2000/svg">
  <path d="M 920.5 591  C 924.14 591  927 593.86  927 597.5  C 927 601.14  924.14 604  920.5 604  C 916.86 604  914 601.14  914 597.5  C 914 593.86  916.86 591  920.5 591  Z " fill-rule="nonzero" fill="#ffffff" stroke="none" />
  <path d="M 920.5 591.5  C 923.86 591.5  926.5 594.14  926.5 597.5  C 926.5 600.86  923.86 603.5  920.5 603.5  C 917.14 603.5  914.5 600.86  914.5 597.5  C 914.5 594.14  917.14 591.5  920.5 591.5  Z " stroke-width="1" stroke="#797979" fill="none" />
  <path d="M 920.5 600.75  C 918.68 600.75  917.25 599.32  917.25 597.5  C 917.25 595.68  918.68 594.25  920.5 594.25  C 922.32 594.25  923.75 595.68  923.75 597.5  C 923.75 599.32  922.32 600.75  920.5 600.75  " fill-rule="nonzero" fill="#797979" stroke="none" />
</svg>