<?xml version="1.0" encoding="utf-8"?>
<svg version="1.1" xmlns:xlink="http://www.w3.org/1999/xlink" width="13px" height="13px" viewBox="1011 591  13 13" xmlns="http://www.w3.org/2000/svg">
  <path d="M 1017.5 591  C 1021.14 591  1024 593.86  1024 597.5  C 1024 601.14  1021.14 604  1017.5 604  C 1013.86 604  1011 601.14  1011 597.5  C 1011 593.86  1013.86 591  1017.5 591  Z " fill-rule="nonzero" fill="#ffffff" stroke="none" />
  <path d="M 1017.5 591.5  C 1020.86 591.5  1023.5 594.14  1023.5 597.5  C 1023.5 600.86  1020.86 603.5  1017.5 603.5  C 1014.14 603.5  1011.5 600.86  1011.5 597.5  C 1011.5 594.14  1014.14 591.5  1017.5 591.5  Z " stroke-width="1" stroke="#797979" fill="none" />
  <path d="M 1017.5 600.75  C 1015.68 600.75  1014.25 599.32  1014.25 597.5  C 1014.25 595.68  1015.68 594.25  1017.5 594.25  C 1019.32 594.25  1020.75 595.68  1020.75 597.5  C 1020.75 599.32  1019.32 600.75  1017.5 600.75  " fill-rule="nonzero" fill="#797979" stroke="none" />
</svg>