<?xml version="1.0" encoding="utf-8"?>
<svg version="1.1" xmlns:xlink="http://www.w3.org/1999/xlink" width="13px" height="13px" viewBox="914 670  13 13" xmlns="http://www.w3.org/2000/svg">
  <path d="M 920.5 670  C 924.14 670  927 672.86  927 676.5  C 927 680.14  924.14 683  920.5 683  C 916.86 683  914 680.14  914 676.5  C 914 672.86  916.86 670  920.5 670  Z " fill-rule="nonzero" fill="#f0f0f0" stroke="none" />
  <path d="M 920.5 670.5  C 923.86 670.5  926.5 673.14  926.5 676.5  C 926.5 679.86  923.86 682.5  920.5 682.5  C 917.14 682.5  914.5 679.86  914.5 676.5  C 914.5 673.14  917.14 670.5  920.5 670.5  Z " stroke-width="1" stroke="#797979" fill="none" />
  <path d="M 920.5 679.75  C 918.68 679.75  917.25 678.32  917.25 676.5  C 917.25 674.68  918.68 673.25  920.5 673.25  C 922.32 673.25  923.75 674.68  923.75 676.5  C 923.75 678.32  922.32 679.75  920.5 679.75  " fill-rule="nonzero" fill="#797979" stroke="none" />
</svg>