<?xml version="1.0" encoding="utf-8"?>
<svg version="1.1" xmlns:xlink="http://www.w3.org/1999/xlink" width="13px" height="13px" viewBox="1011 670  13 13" xmlns="http://www.w3.org/2000/svg">
  <path d="M 1017.5 670  C 1021.14 670  1024 672.86  1024 676.5  C 1024 680.14  1021.14 683  1017.5 683  C 1013.86 683  1011 680.14  1011 676.5  C 1011 672.86  1013.86 670  1017.5 670  Z " fill-rule="nonzero" fill="#ffffff" stroke="none" />
  <path d="M 1017.5 670.5  C 1020.86 670.5  1023.5 673.14  1023.5 676.5  C 1023.5 679.86  1020.86 682.5  1017.5 682.5  C 1014.14 682.5  1011.5 679.86  1011.5 676.5  C 1011.5 673.14  1014.14 670.5  1017.5 670.5  Z " stroke-width="1" stroke="#797979" fill="none" />
  <path d="M 1017.5 679.75  C 1015.68 679.75  1014.25 678.32  1014.25 676.5  C 1014.25 674.68  1015.68 673.25  1017.5 673.25  C 1019.32 673.25  1020.75 674.68  1020.75 676.5  C 1020.75 678.32  1019.32 679.75  1017.5 679.75  " fill-rule="nonzero" fill="#797979" stroke="none" />
</svg>