<?xml version="1.0" encoding="utf-8"?>
<svg version="1.1" xmlns:xlink="http://www.w3.org/1999/xlink" width="30px" height="30px" xmlns="http://www.w3.org/2000/svg">
  <g transform="matrix(1 0 0 1 -306 -77 )">
    <path d="M 321 77  C 329.4 77  336 83.6  336 92  C 336 100.4  329.4 107  321 107  C 312.6 107  306 100.4  306 92  C 306 83.6  312.6 77  321 77  Z " fill-rule="nonzero" fill="#ffffff" stroke="none" />
    <path d="M 321 77.5  C 329.12 77.5  335.5 83.88  335.5 92  C 335.5 100.12  329.12 106.5  321 106.5  C 312.88 106.5  306.5 100.12  306.5 92  C 306.5 83.88  312.88 77.5  321 77.5  Z " stroke-width="1" stroke="#797979" fill="none" />
  </g>
</svg>