<?xml version="1.0" encoding="utf-8"?>
<svg version="1.1" xmlns:xlink="http://www.w3.org/1999/xlink" width="375px" height="591px" xmlns="http://www.w3.org/2000/svg">
  <g transform="matrix(1 0 0 1 0 -57 )">
    <path d="M 0 57  L 375 57  L 375 648  L 0 648  L 0 57  " fill-rule="nonzero" fill="#cccccc" stroke="none" />
    <path d="M 26 83  L 349 83  L 349 622  L 26 622  L 26 83  " fill-rule="nonzero" fill="#ffffff" stroke="none" />
    <path d="M 223.125 201.89999999999998  C 207.375 201.89999999999998  195 189.52499999999998  195 173.77499999999998  C 195 158.02499999999998  207.375 145.64999999999998  223.125 145.64999999999998  C 238.875 145.64999999999998  251.25 158.02499999999998  251.25 173.77499999999998  C 251.25 189.52499999999998  238.875 201.89999999999998  223.125 201.89999999999998  " fill-rule="nonzero" fill="#cccccc" stroke="none" />
    <path d="M 36 613  L 36 327  L 112 197  L 218.4 301  L 279.20000000000005 275  L 340 301  L 340 613  L 36 613  " fill-rule="nonzero" fill="#169bd5" stroke="none" />
  </g>
</svg>