<?xml version="1.0" encoding="utf-8"?>
<svg version="1.1" xmlns:xlink="http://www.w3.org/1999/xlink" width="13px" height="13px" viewBox="1728 783  13 13" xmlns="http://www.w3.org/2000/svg">
  <path d="M 1734.5 783  C 1738.14 783  1741 785.86  1741 789.5  C 1741 793.14  1738.14 796  1734.5 796  C 1730.86 796  1728 793.14  1728 789.5  C 1728 785.86  1730.86 783  1734.5 783  Z " fill-rule="nonzero" fill="#f0f0f0" stroke="none" />
  <path d="M 1734.5 783.5  C 1737.86 783.5  1740.5 786.14  1740.5 789.5  C 1740.5 792.86  1737.86 795.5  1734.5 795.5  C 1731.14 795.5  1728.5 792.86  1728.5 789.5  C 1728.5 786.14  1731.14 783.5  1734.5 783.5  Z " stroke-width="1" stroke="#797979" fill="none" />
  <path d="M 1734.5 792.75  C 1732.68 792.75  1731.25 791.32  1731.25 789.5  C 1731.25 787.68  1732.68 786.25  1734.5 786.25  C 1736.32 786.25  1737.75 787.68  1737.75 789.5  C 1737.75 791.32  1736.32 792.75  1734.5 792.75  " fill-rule="nonzero" fill="#797979" stroke="none" />
</svg>