<?xml version="1.0" encoding="utf-8"?>
<svg version="1.1" xmlns:xlink="http://www.w3.org/1999/xlink" width="13px" height="13px" viewBox="1728 760  13 13" xmlns="http://www.w3.org/2000/svg">
  <path d="M 1734.5 760  C 1738.14 760  1741 762.86  1741 766.5  C 1741 770.14  1738.14 773  1734.5 773  C 1730.86 773  1728 770.14  1728 766.5  C 1728 762.86  1730.86 760  1734.5 760  Z " fill-rule="nonzero" fill="#f0f0f0" stroke="none" />
  <path d="M 1734.5 760.5  C 1737.86 760.5  1740.5 763.14  1740.5 766.5  C 1740.5 769.86  1737.86 772.5  1734.5 772.5  C 1731.14 772.5  1728.5 769.86  1728.5 766.5  C 1728.5 763.14  1731.14 760.5  1734.5 760.5  Z " stroke-width="1" stroke="#797979" fill="none" />
  <path d="M 1734.5 769.75  C 1732.68 769.75  1731.25 768.32  1731.25 766.5  C 1731.25 764.68  1732.68 763.25  1734.5 763.25  C 1736.32 763.25  1737.75 764.68  1737.75 766.5  C 1737.75 768.32  1736.32 769.75  1734.5 769.75  " fill-rule="nonzero" fill="#797979" stroke="none" />
</svg>