<?xml version="1.0" encoding="utf-8"?>
<svg version="1.1" xmlns:xlink="http://www.w3.org/1999/xlink" width="163px" height="159px" xmlns="http://www.w3.org/2000/svg">
  <g transform="matrix(1 0 0 1 -22 -1246 )">
    <path d="M 22 1246  L 185 1246  L 185 1405  L 22 1405  L 22 1246  " fill-rule="nonzero" fill="#cccccc" stroke="none" />
    <path d="M 33 1257  L 174 1257  L 174 1394  L 33 1394  L 33 1257  " fill-rule="nonzero" fill="#ffffff" stroke="none" />
    <path d="M 118.685 1293.6999999999998  C 112.007 1293.6999999999998  106.76 1288.4529999999997  106.76 1281.7749999999999  C 106.76 1275.097  112.007 1269.85  118.685 1269.85  C 125.36300000000001 1269.85  130.61 1275.097  130.61 1281.7749999999999  C 130.61 1288.4529999999997  125.36300000000001 1293.6999999999998  118.685 1293.6999999999998  " fill-rule="nonzero" fill="#cccccc" stroke="none" />
    <path d="M 37 1390  L 37 1319.05  L 70.25 1286.8  L 116.8 1314.4993865030674  L 143.4 1306.15  L 170 1314.4993865030674  L 170 1390  L 37 1390  " fill-rule="nonzero" fill="#169bd5" stroke="none" />
  </g>
</svg>