<?xml version="1.0" encoding="utf-8"?>
<svg version="1.1" xmlns:xlink="http://www.w3.org/1999/xlink" width="62px" height="62px" xmlns="http://www.w3.org/2000/svg">
  <g transform="matrix(1 0 0 1 -16 -87 )">
    <path d="M 47 87  C 64.36 87  78 100.64  78 118  C 78 135.36  64.36 149  47 149  C 29.64 149  16 135.36  16 118  C 16 100.64  29.64 87  47 87  Z " fill-rule="nonzero" fill="#ffffff" stroke="none" />
    <path d="M 47 87.5  C 64.08 87.5  77.5 100.92  77.5 118  C 77.5 135.07999999999998  64.08 148.5  47 148.5  C 29.919999999999998 148.5  16.5 135.07999999999998  16.5 118  C 16.5 100.92  29.919999999999998 87.5  47 87.5  Z " stroke-width="1" stroke="#797979" fill="none" />
  </g>
</svg>