<?xml version="1.0" encoding="utf-8"?>
<svg version="1.1" xmlns:xlink="http://www.w3.org/1999/xlink" width="137px" height="122px" xmlns="http://www.w3.org/2000/svg">
  <g transform="matrix(1 0 0 1 -14 -62 )">
    <path d="M 14 62  L 151 62  L 151 184  L 14 184  L 14 62  " fill-rule="nonzero" fill="#cccccc" stroke="none" />
    <path d="M 23 71  L 142 71  L 142 175  L 23 175  L 23 71  " fill-rule="nonzero" fill="#ffffff" stroke="none" />
    <path d="M 94.39000000000001 98.6  C 89.266 98.6  85.24000000000001 94.574  85.24000000000001 89.44999999999999  C 85.24000000000001 84.326  89.266 80.3  94.39000000000001 80.3  C 99.51400000000001 80.3  103.54 84.326  103.54 89.44999999999999  C 103.54 94.574  99.51400000000001 98.6  94.39000000000001 98.6  " fill-rule="nonzero" fill="#cccccc" stroke="none" />
    <path d="M 26 172  L 26 118.1  L 54.25 93.6  L 93.8 119.63795620437956  L 116.4 108.3  L 139 119.63795620437956  L 139 172  L 26 172  " fill-rule="nonzero" fill="#169bd5" stroke="none" />
  </g>
</svg>